<?xml version="1.0"?>
<svg xmlns="http://www.w3.org/2000/svg" id="book" viewBox="0 0 240 170" width="1in" height=".7in">
  <g id="g1" stroke="#000" stroke-width="5" transform="translate(-106 -552)">
    <path id="path1" d="m108 624 l63 95 c20-28 67-46 93-40 32-22 69-18 79-10 l-73-95s-50-14-71 16c-36-16-81 10-91 34z" fill-rule="evenodd"/>
    <path id="path2" d="m116 612 l54 83 c22-40 67-59 89-32 34-48 75 0 79 0 l-73-99 s-48-22-69 8c-20-16-69 4-81 40z" fill="#fff" fill-rule="evenodd"/>
    <path id="path3" d="m199 571 l63 85 c8 12-8 34 26 48" fill="none"/>
  </g>
</svg>
